<svg width="44" height="44" viewBox="0 0 44 44" fill="none" xmlns="http://www.w3.org/2000/svg" class=""><circle cx="22" cy="22" r="21" fill="#FFE603" stroke="#171717" stroke-width="2"></circle><path fill-rule="evenodd" clip-rule="evenodd" d="m9.984 26.075 1.151 1.758c6.949-4.542 14.107-4.521 21.893.02l1.068-1.8c-8.435-4.939-16.535-4.939-24.112.021Z" fill="#171717"></path><path fill-rule="evenodd" clip-rule="evenodd" d="M22.06 31.39a1.47 1.47 0 0 1-1.464-1.465c0-.796.67-1.465 1.465-1.465s1.465.67 1.465 1.465a1.47 1.47 0 0 1-1.465 1.465Zm0-5.044a3.555 3.555 0 0 0-3.558 3.558 3.555 3.555 0 0 0 3.559 3.558 3.555 3.555 0 0 0 3.558-3.558 3.555 3.555 0 0 0-3.558-3.558ZM20.574 19.126l1.465 1.465 9.105-9.084-1.486-1.486-7.577 7.598L14.463 10l-1.486 1.486 7.618 7.598-.02.042Z" fill="#171717"></path></svg>