<svg width="500" height="500" fill="none" xmlns="http://www.w3.org/2000/svg"><circle cx="22" cy="22" r="21" fill="#FFE603" stroke="#171717" stroke-width="2"/><path fill-rule="evenodd" clip-rule="evenodd" d="M9.984 26.075l1.151 1.758c6.949-4.542 14.107-4.521 21.893.02l1.068-1.8c-8.435-4.939-16.535-4.939-24.112.021z" fill="#171717"/><path fill-rule="evenodd" clip-rule="evenodd" d="M22.06 31.39a1.47 1.47 0 01-1.464-1.465c0-.796.67-1.465 1.465-1.465s1.465.67 1.465 1.465a1.47 1.47 0 01-1.465 1.465zm0-5.044a3.555 3.555 0 00-3.558 3.558 3.555 3.555 0 003.559 3.558 3.555 3.555 0 003.558-3.558 3.555 3.555 0 00-3.558-3.558zm-1.486-7.22l1.465 1.465 9.105-9.084-1.486-1.486-7.577 7.598L14.463 10l-1.486 1.486 7.618 7.598-.02.042z" fill="#171717"/></svg>